<?xml version="1.0" encoding="iso-8859-1"?>
<!-- Generator: Adobe Illustrator 19.0.0, SVG Export Plug-In . SVG Version: 6.00 Build 0)  -->
<svg version="1.1" id="Layer_1" xmlns="http://www.w3.org/2000/svg" xmlns:xlink="http://www.w3.org/1999/xlink" x="0px" y="0px"
	 viewBox="0 0 512.001 512.001" style="enable-background:new 0 0 512.001 512.001;" xml:space="preserve">
<path style="fill:#D5E2E8;" d="M307.035,325.389V186.612c0-17.598,10.386-33.594,26.538-40.58
	c25.564-11.057,43.321-36.738,42.708-66.504c-0.768-37.259-30.851-67.884-68.091-69.278c-14.981-0.561-28.967,3.539-40.638,10.959
	c-7.027,4.467-16.078,4.467-23.105,0c-11.671-7.42-25.657-11.52-40.638-10.959c-37.24,1.395-67.323,32.02-68.091,69.279
	c-0.613,29.766,17.144,55.447,42.708,66.504c16.151,6.985,26.538,22.982,26.538,40.58v138.776c0,17.598-10.386,33.594-26.538,40.58
	c-25.564,11.057-43.321,36.738-42.708,66.504c0.768,37.259,30.851,67.884,68.091,69.279c14.981,0.561,28.967-3.539,40.638-10.959
	c7.027-4.467,16.078-4.467,23.105,0c11.671,7.42,25.657,11.52,40.638,10.959c37.24-1.395,67.323-32.02,68.091-69.279
	c0.613-29.766-17.144-55.447-42.708-66.504C317.421,358.982,307.035,342.986,307.035,325.389z"/>
<path d="M305.473,512.001c-15.441,0-30.379-4.33-43.392-12.603c-3.695-2.348-8.467-2.348-12.161,0
	c-13.881,8.826-29.958,13.161-46.492,12.545c-42.803-1.603-77.025-36.419-77.907-79.261c-0.681-33.083,18.496-62.943,48.856-76.075
	c12.385-5.357,20.388-17.611,20.388-31.219V186.612c0-13.608-8.003-25.861-20.388-31.219
	c-30.361-13.132-49.538-42.992-48.856-76.075c0.883-42.842,35.104-77.658,77.907-79.261c16.539-0.611,32.611,3.719,46.492,12.545
	c3.694,2.35,8.466,2.349,12.161,0c13.879-8.824,29.943-13.155,46.491-12.545c42.803,1.603,77.024,36.419,77.907,79.261
	c0.681,33.082-18.495,62.943-48.856,76.075c-12.385,5.357-20.387,17.611-20.387,31.219v138.776c0,13.608,8.003,25.861,20.387,31.219
	c30.362,13.132,49.538,42.993,48.856,76.075c-0.883,42.842-35.104,77.658-77.907,79.261
	C307.538,511.981,306.502,512.001,305.473,512.001z M256,477.252c5.928,0,11.854,1.644,17.025,4.931
	c10.375,6.597,22.407,9.842,34.783,9.374c32.017-1.199,57.614-27.245,58.275-59.297c0.511-24.759-13.84-47.106-36.56-56.932
	c-19.858-8.589-32.689-28.192-32.689-49.94V186.612c0-21.749,12.831-41.352,32.689-49.94c22.719-9.827,37.071-32.173,36.56-56.932
	c-0.66-32.051-26.258-58.098-58.275-59.297c-12.381-0.472-24.41,2.778-34.783,9.374c-10.342,6.576-23.708,6.575-34.05,0
	c-10.374-6.596-22.398-9.838-34.783-9.374c-32.017,1.199-57.615,27.245-58.275,59.297c-0.51,24.759,13.84,47.106,36.56,56.932
	c19.858,8.589,32.689,28.192,32.689,49.94v138.776c0,21.749-12.832,41.352-32.689,49.94c-22.719,9.826-37.07,32.173-36.56,56.932
	c0.66,32.051,26.259,58.098,58.276,59.297c12.376,0.464,24.409-2.778,34.783-9.374C244.147,478.896,250.074,477.252,256,477.252z"/>
<path d="M168.511,91.223c-5.633,0-10.199-4.566-10.199-10.199c0-10.657,3.439-20.738,9.944-29.152
	c3.444-4.456,9.85-5.277,14.307-1.831c4.457,3.445,5.276,9.851,1.831,14.307c-3.719,4.81-5.684,10.577-5.684,16.677
	C178.711,86.656,174.144,91.223,168.511,91.223z"/>
<path d="M200.786,54.087c-5.01,0-9.38-3.694-10.089-8.797c-0.775-5.579,3.119-10.731,8.698-11.506
	c2.178-0.303,4.402-0.456,6.611-0.456c5.633,0,10.199,4.566,10.199,10.199s-4.566,10.199-10.199,10.199
	C204.734,53.727,201.169,54.087,200.786,54.087z"/>
<g>
</g>
<g>
</g>
<g>
</g>
<g>
</g>
<g>
</g>
<g>
</g>
<g>
</g>
<g>
</g>
<g>
</g>
<g>
</g>
<g>
</g>
<g>
</g>
<g>
</g>
<g>
</g>
<g>
</g>
</svg>
