<?xml version="1.0" encoding="iso-8859-1"?>
<!-- Generator: Adobe Illustrator 19.0.0, SVG Export Plug-In . SVG Version: 6.00 Build 0)  -->
<svg version="1.1" id="Layer_1" xmlns="http://www.w3.org/2000/svg" xmlns:xlink="http://www.w3.org/1999/xlink" x="0px" y="0px"
	 viewBox="0 0 122.607 122.607" style="enable-background:new 0 0 122.607 122.607;" xml:space="preserve">
<g id="XMLID_268_">
	<path id="XMLID_7_" style="fill:#41A9C4;" d="M61.305,122.607c-8.731,0-37.22-3.49-37.22-48.399
		c0-29.758,29.126-66.157,34.964-73.151C59.61,0.385,60.431,0,61.304,0l0,0c0.872,0,1.694,0.385,2.255,1.057l0,0
		c5.839,6.995,34.964,43.396,34.964,73.151C98.523,119.117,70.034,122.607,61.305,122.607z M61.278,3.079
		c-5.698,6.892-34.147,42.465-34.147,71.129c0,28.397,12.774,45.352,34.172,45.352c21.397,0,34.173-16.955,34.173-45.352
		C95.476,45.599,67.128,10.098,61.278,3.079z M40.471,104.133c-0.425,0-0.857-0.078-1.287-0.234
		c-3.163-1.15-5.614-6.549-6.902-15.203c-2.713-18.231,0.137-34.098,9.527-53.055c0.719-1.451,2.322-2.039,3.81-1.395
		c1.485,0.641,2.155,2.206,1.595,3.72l-1.054,2.831c-4.32,11.57-4.823,30.437-1.224,45.883c1.7,7.295,0.925,13.897-1.929,16.428
		C42.243,103.786,41.37,104.133,40.471,104.133z M43.614,38.899c-8.356,17.53-10.842,32.397-8.319,49.349
		c1.365,9.176,3.741,12.355,4.93,12.788c0.19,0.069,0.404,0.109,0.76-0.207c1.32-1.17,2.754-5.859,0.983-13.458
		c-3.722-15.972-3.172-35.562,1.337-47.64l0,0L43.614,38.899z"/>
	<path id="XMLID_271_" style="fill:#41A9C4;" d="M29.292,73.695c0,29.188,14.314,41.982,31.97,41.982s31.97-12.795,31.97-41.982
		c0-26.141-25.644-58.227-30.998-64.641c-0.508-0.609-1.437-0.609-1.945,0C54.937,15.468,29.292,47.554,29.292,73.695z
		 M75.162,40.763c-0.558-1.506,1.625-2.443,2.338-1.003c8.21,16.572,10.799,30.628,8.405,46.71
		c-3.015,20.26-12.095,13.471-8.654-1.295s2.616-31.803-1.147-41.88C75.776,42.414,75.462,41.57,75.162,40.763z"/>
</g>
<g>
</g>
<g>
</g>
<g>
</g>
<g>
</g>
<g>
</g>
<g>
</g>
<g>
</g>
<g>
</g>
<g>
</g>
<g>
</g>
<g>
</g>
<g>
</g>
<g>
</g>
<g>
</g>
<g>
</g>
</svg>
